<svg xmlns="http://www.w3.org/2000/svg" xmlns:xlink="http://www.w3.org/1999/xlink" version="1.1" x="0px" y="0px" viewBox="0 0 100 125" enable-background="new 0 0 100 100" xml:space="preserve"><path d="M18.07,35.519c2.78-2.047,6.118-3.13,9.652-3.13H81.75v-4.09c0-5.422-2.759-8.181-8.181-8.181H49.851  c-1.632,0-2.726-0.453-3.879-1.606l-5.421-5.422c-1.154-1.153-2.248-1.606-3.879-1.606H13.181C7.759,11.484,5,14.243,5,19.665V67.06  l7.219-23.25C13.268,40.434,15.291,37.567,18.07,35.519z"/><path d="M88.111,38.752H27.723c-4.416,0-8.117,2.726-9.427,6.944L5.27,87.648c-0.148,0.479,0.137,0.868,0.64,0.868h75.158  c0.377,0,0.772-0.292,0.884-0.651l12.555-40.433C96.144,42.159,93.634,38.752,88.111,38.752z"/><text x="0" y="115" fill="#000000" font-size="5px" font-weight="bold" font-family="'Helvetica Neue', Helvetica, Arial-Unicode, Arial, Sans-serif">Created by David</text><text x="0" y="120" fill="#000000" font-size="5px" font-weight="bold" font-family="'Helvetica Neue', Helvetica, Arial-Unicode, Arial, Sans-serif">from the Noun Project</text></svg>